#!OML:ASF F:\VICON\USERDATA\INSTALL\rory3\rory3.ASF
:FULLY-SPECIFIED
:DEGREES
54
root 0.4786412575512527 17.766368232926215 17.052371935809553 -2.1455449454960784 -4.588350935930926 -4.254286083027878
lfemur -24.231000701659443 -3.0653137702038014 -14.361863845621691
ltibia 33.5817238119686
lfoot -4.241571963304747 -0.15625612541244738
ltoes -3.86487605679528
rfemur 6.6876214536704595 4.697852010135669 30.199722226507404
rtibia 43.67687994887198
rfoot -4.756908427290011 -3.124350902088108
rtoes 1.8224540119263317
lowerback 9.328749584067964 2.772506016040011 4.664508646614031
upperback 0.15361480292339671 4.06534473182403 1.5443618894414448
thorax -4.865339861319048 1.8088458606902256 -1.2624138355129104
lowerneck -16.461992160800282 -2.6757285752113478 -1.9874891936233205
upperneck 20.81177121754678 -3.4706889633886533 1.168165355485214
head 9.393472348357271 -1.784752213277157 0.14338724481850157
lclavicle -1.9521159861455134e-15 9.078050095451619e-16
lhumerus -38.767570682266395 9.635995296793332 79.99513404917629
lradius 19.464423488653967
lwrist 1.5090981072855278
lhand -27.038477800067263 23.538977483848264
lfingers 7.12502
lthumb -0.3834489578526139 53.86192927087282
rclavicle -1.9534744339515732e-15 9.065538930195828e-16
rhumerus -25.386003631666156 -15.281902399378568 -81.02386973127129
rradius 26.890999188766948
rwrist 4.385821805287099
rhand -17.931482976115458 22.565015932070224
rfingers 7.12502
rthumb 8.45849148940356 -7.027296967889437
55
root 0.5451881637308561 17.80013414753529 17.72196215334389 -2.7700313855386343 -4.775495094283249 -2.95570495798373
lfemur -22.48260358437262 -2.0391185475816465 -16.68457888439773
ltibia 34.6073310770349
lfoot -5.048969034040226 0.3588636615277421
ltoes -3.519857934206364
rfemur 4.208479619366162 3.805703124607612 28.537984192365204
rtibia 49.94220955848782
rfoot -3.4807422499786123 -3.1066441645868728
rtoes 3.0358092920294855
lowerback 9.506463001464025 2.6569988046840676 3.458576188344586
upperback 0.21532778585345136 4.012035543325622 1.271716765263439
thorax -4.9056743760988075 1.6977540595894858 -0.9260707001671332
lowerneck -16.45878264749056 -2.729838698940284 -1.9910393352734168
upperneck 20.778022496069806 -3.5211843144450428 1.1911016560146286
head 9.376374585346063 -1.8055208847558346 0.15427171877007653
lclavicle -1.9521159862594837e-15 9.078050094401963e-16
lhumerus -38.93052424523958 9.780395955024657 79.79411341700673
lradius 19.4684963687045
lwrist 1.8136828171174155
lhand -27.043739580358533 23.516721922782715
lfingers 7.12502
lthumb -0.3488816245935144 53.93356458078618
rclavicle -1.953474434096069e-15 9.065538928865036e-16
rhumerus -25.888763562385385 -16.3267708167567 -80.87234593966693
rradius 26.86520074073411
rwrist 5.081181564182353
rhand -17.894573760564025 22.61127543145435
rfingers 7.12502
rthumb 8.460350150777794 -7.029832261591323
56
root 0.6085150759956437 17.847178584946082 18.835128918605733 -3.2012776346725005 -5.091815836572865 -1.6917656005511128
lfemur -19.39418861862282 -1.6477900124850782 -19.563564361801976
ltibia 34.13114842548004
lfoot -5.505435754145899 1.1269164898748947
ltoes -3.9528547704204624
rfemur 0.39294093353061754 2.818128592797893 26.760525996765605
rtibia 55.36409560718346
rfoot -2.084803569978357 -3.32659122690775
rtoes 4.240597741158203
lowerback 9.708808814750851 2.4707226454300932 2.3476837347276502
upperback 0.2808144977038506 3.740073781509125 0.942075264090807
thorax -4.96459896631342 1.4992164168833382 -0.6324050305750643
lowerneck -16.40747478318288 -2.7499792212817904 -1.9142888030023222
upperneck 20.75652288267663 -3.551457897683553 1.2180272815455315
head 9.35872662552556 -1.8245136343992254 0.1550236815961428
lclavicle -1.9521159860534304e-15 9.078050096299692e-16
lhumerus -38.78554847440623 9.439151361830268 79.91901944384573
lradius 19.618962645642092
lwrist 2.2788032638859606
lhand -27.041022157581 23.518104860795862
lfingers 7.12502
lthumb -0.392318717628794 53.82526304638364
rclavicle -1.9534744341373125e-15 9.065538928485187e-16
rhumerus -26.158861460738 -17.133876089999 -80.81179098953326
rradius 26.838737506375487
rwrist 5.694145679795895
rhand -17.86382664843848 22.651031875914725
rfingers 7.12502
rthumb 8.472759960065467 -6.994461020702646
57
root 0.6557141373132801 17.8959118261261 19.94811639995183 -3.4896025450862753 -5.291181558920099 -0.7556683768609671
lfemur -16.314919539976465 -1.7824252874812487 -21.624109423508596
ltibia 33.10267207368997
lfoot -5.86233905207004 1.8048216365450644
ltoes -4.83127353843057
rfemur -3.765172098371872 1.7943861777148524 25.144756644475
rtibia 59.33829614579794
rfoot -1.44470847319423 -3.8980095394690815
rtoes 5.434452468735267
lowerback 9.899515975100922 2.1228438446126385 1.2877049771221216
upperback 0.3738407876911297 3.5027294468814434 0.733288240858124
thorax -4.989348782530094 1.3307173194571198 -0.15699879474363143
lowerneck -16.462402463901643 -2.8129068043545997 -1.9559307389528908
upperneck 20.746211274866596 -3.552351084124565 1.261374498932189
head 9.357895811093769 -1.8254332114795133 0.17227982414852844
lclavicle -1.9521159856617977e-15 9.07805009990659e-16
lhumerus -38.38432604791172 8.6615476092274 80.21366372346803
lradius 19.90453933508643
lwrist 2.59333863565155
lhand -27.06809496689707 23.463956565593286
lfingers 7.12502
lthumb -0.3668231406633335 53.89582797178608
rclavicle -1.953474434097835e-15 9.065538928848771e-16
rhumerus -26.59009170535967 -18.018960355713396 -80.60583653393763
rradius 26.7405412870663
rwrist 5.8266803401445
rhand -17.857890137137826 22.610031673567686
rfingers 7.12502
rthumb 8.427284300493323 -7.1179823249601
58
root 0.6800917221299856 17.93226415865894 20.72716117600093 -3.703446749212548 -5.183207463384656 -0.22751175541518642
lfemur -13.119822037409847 -1.8957161823384465 -22.522791372328065
ltibia 32.278683995346064
lfoot -5.819694231555519 2.6583653421583646
ltoes -4.992999800927944
rfemur -8.276299722229961 0.8990752132798381 23.805660164279832
rtibia 61.31237201316718
rfoot -1.8104819377298877 -4.4969133680634545
rtoes 6.052546455838314
lowerback 10.121015249961223 1.7538356411630698 0.6397531842788958
upperback 0.43889034018942924 3.037427031319485 0.5799336340376016
thorax -5.020170756411188 1.0832471632892802 0.17556692545533736
lowerneck -16.440022858021315 -2.8399026368294753 -1.927579673453129
upperneck 20.713005711904408 -3.5441048692131405 1.2727673382126425
head 9.345545187727673 -1.8187703718625237 0.17699780283933464
lclavicle -1.952115985571256e-15 9.07805010074047e-16
lhumerus -37.4640723618308 7.653022977193416 80.67290075732637
lradius 20.305477942538165
lwrist 2.7852441320392627
lhand -27.061882039833545 23.48126897036236
lfingers 7.12502
lthumb -0.3994922544976205 53.816362317761104
rclavicle -1.9534744339826544e-15 9.065538929909576e-16
rhumerus -27.250142642798217 -18.638715398002425 -80.27682001721251
rradius 26.629498252995404
rwrist 5.6761723406675735
rhand -17.833920983347728 22.601954790657736
rfingers 7.12502
rthumb 8.433788627508353 -7.1721950562178876
59
root 0.688659968893438 17.948308295094357 21.388794247321425 -3.852784365060108 -4.724203312029378 0.07650717469314738
lfemur -10.42299725678113 -2.2944768421029105 -23.66590997311109
ltibia 31.670886771512713
lfoot -7.132638045891326 2.241704168506268
ltoes -4.8733554168434985
rfemur -12.915938446318766 0.1869495292986496 22.839426294392737
rtibia 60.917780773778176
rfoot -2.3604083226351618 -4.816962635494212
rtoes 6.333931043149626
lowerback 10.293157422252222 1.3581597023693064 0.1298418591415531
upperback 0.5159400736886353 2.587674921224987 0.5724383751000355
thorax -5.005735833363231 0.8890389477539955 0.6876748465885937
lowerneck -16.469387934918906 -2.8692287623313018 -1.9190288933785702
upperneck 20.670162494375397 -3.5265203067220803 1.2951216270990273
head 9.337509286809453 -1.80626494115788 0.18435893304879208
lclavicle -1.9521159854990553e-15 9.07805010140543e-16
lhumerus -36.044251820595505 6.397826880730558 81.26106153925069
lradius 20.772331423277148
lwrist 3.100390733956803
lhand -27.074963757459788 23.445941901481007
lfingers 7.12502
lthumb -0.35864784431630614 53.907260537769936
rclavicle -1.9534744339729013e-15 9.0655389299994e-16
rhumerus -28.007183888239947 -18.749466648343798 -79.97036624027707
rradius 26.5619450614224
rwrist 5.5484836612502395
rhand -17.829368737864684 22.572823210220403
rfingers 7.12502
rthumb 8.43611277147757 -7.212415042544671
60
root 0.6930466882514301 17.94474252760974 22.37930296380104 -3.88878167212075 -3.990241914467884 0.4290411089099275
lfemur -8.027433170841888 -2.8712436887419743 -24.441720588989632
ltibia 31.194288320720172
lfoot -7.237843292445708 2.764613137489463
ltoes -4.382520759805848
rfemur -16.994894348672076 -0.24823241798561213 22.225352841111718
rtibia 58.57721688020798
rfoot -3.125299890632263 -5.141137295685845
rtoes 6.601448797512861
lowerback 10.39620447360365 1.0002853760637365 -0.3436590929350807
upperback 0.5764305931605714 2.0407873966336325 0.6290596122124161
thorax -4.981892776503725 0.6718073277993102 1.0678345116971428
lowerneck -16.475336848414962 -2.8825280008349186 -1.8949566771224993
upperneck 20.6201425225586 -3.498158183329518 1.327741965629182
head 9.320474905098367 -1.794404974116051 0.1816462630977525
lclavicle -1.952115985664031e-15 9.078050099886021e-16
lhumerus -34.325605832370705 4.836337727644173 81.87626389635389
lradius 21.30094816821147
lwrist 3.4906999291381293
lhand -27.054723985509263 23.478516567146993
lfingers 7.12502
lthumb -0.3572746968916957 53.886127969414275
rclavicle -1.9534744339856382e-15 9.065538929882094e-16
rhumerus -28.667430082094725 -18.537543550131602 -79.75107323030116
rradius 26.480772191353488
rwrist 5.375658768584754
rhand -17.81400626189887 22.57875769102862
rfingers 7.12502
rthumb 8.439142461088762 -7.218820730072099
